<svg width="637" height="400" viewBox="0 0 637 400" fill="none" xmlns="http://www.w3.org/2000/svg">
<path d="M69.7952 100L34.252 0H69.7952H105.338L140.882 100L105.338 200H69.7952H34.252L69.7952 100Z" fill="white" fill-opacity="0.05"/>
<path d="M211.578 100L176.035 0H211.578H247.122L282.665 100L247.122 200H211.578H176.035L211.578 100Z" fill="white" fill-opacity="0.05"/>
<path d="M352.969 100L317.816 0H352.969H388.122L423.274 100L388.122 200H352.969H317.816L352.969 100Z" fill="white" fill-opacity="0.05"/>
<path d="M494.748 100L459.596 0H494.748H529.901L565.054 100L529.901 200H494.748H459.596L494.748 100Z" fill="white" fill-opacity="0.05"/>
<path d="M-0.900114 300L-36.0527 200H-0.900114H34.2525L69.4051 300L34.2525 400H-0.900114H-36.0527L-0.900114 300Z" fill="white" fill-opacity="0.05"/>
<path d="M140.881 300L105.729 200H140.881H176.034L211.186 300L176.034 400H140.881H105.729L140.881 300Z" fill="white" fill-opacity="0.05"/>
<path d="M281.883 300L246.34 200H281.883H317.426L352.969 300L317.426 400H281.883H246.34L281.883 300Z" fill="white" fill-opacity="0.05"/>
<path d="M423.662 300L388.119 200H423.662H459.206L494.749 300L459.206 400H423.662H388.119L423.662 300Z" fill="white" fill-opacity="0.05"/>
<path d="M565.446 300L529.902 200H565.446H600.989L636.532 300L600.989 400H565.446H529.902L565.446 300Z" fill="white" fill-opacity="0.05"/>
</svg>
