<svg width="635" height="290" viewBox="0 0 635 290" fill="none" xmlns="http://www.w3.org/2000/svg">
<path d="M30.3333 72.5L0 0H30.3333H60.6667L91 72.5L60.6667 145H30.3333H0L30.3333 72.5Z" fill="white" fill-opacity="0.25"/>
<path d="M151.333 72.5L121 0H151.333H181.667L212 72.5L181.667 145H151.333H121L151.333 72.5Z" fill="white" fill-opacity="0.25"/>
<path d="M272.333 72.5L242 0H272.333H302.667L333 72.5L302.667 145H272.333H242L272.333 72.5Z" fill="white" fill-opacity="0.25"/>
<path d="M393 72.5L363 0H393H423L453 72.5L423 145H393H363L393 72.5Z" fill="white" fill-opacity="0.25"/>
<path d="M514 72.5L484 0H514H544L574 72.5L544 145H514H484L514 72.5Z" fill="white" fill-opacity="0.25"/>
<path d="M91 217.5L61 145H91H121L151 217.5L121 290H91H61L91 217.5Z" fill="white" fill-opacity="0.25"/>
<path d="M212 217.5L182 145H212H242L272 217.5L242 290H212H182L212 217.5Z" fill="white" fill-opacity="0.25"/>
<path d="M332.333 217.5L302 145H332.333H362.667L393 217.5L362.667 290H332.333H302L332.333 217.5Z" fill="white" fill-opacity="0.25"/>
<path d="M453.333 217.5L423 145H453.333H483.667L514 217.5L483.667 290H453.333H423L453.333 217.5Z" fill="white" fill-opacity="0.25"/>
<path d="M574.333 217.5L544 145H574.333H604.667L635 217.5L604.667 290H574.333H544L574.333 217.5Z" fill="white" fill-opacity="0.25"/>
</svg>
