<svg width="157" height="60" viewBox="0 0 157 60" fill="none" xmlns="http://www.w3.org/2000/svg">
<circle cx="30" cy="30" r="25" stroke="#DB4444" stroke-width="10"/>
<path d="M83.4469 41V20H86.4469V38.39H97.8169V41H83.4469ZM107.444 41.18C105.844 41.18 104.424 40.83 103.184 40.13C101.944 39.43 100.964 38.47 100.244 37.25C99.5243 36.01 99.1643 34.61 99.1643 33.05C99.1643 31.47 99.5243 30.07 100.244 28.85C100.964 27.63 101.944 26.68 103.184 26C104.424 25.3 105.844 24.95 107.444 24.95C109.024 24.95 110.434 25.3 111.674 26C112.934 26.68 113.914 27.63 114.614 28.85C115.334 30.05 115.694 31.45 115.694 33.05C115.694 34.63 115.334 36.03 114.614 37.25C113.914 38.47 112.934 39.43 111.674 40.13C110.434 40.83 109.024 41.18 107.444 41.18ZM107.444 38.66C108.464 38.66 109.374 38.43 110.174 37.97C110.994 37.51 111.634 36.86 112.094 36.02C112.554 35.16 112.784 34.17 112.784 33.05C112.784 31.91 112.554 30.93 112.094 30.11C111.634 29.27 110.994 28.62 110.174 28.16C109.374 27.7 108.464 27.47 107.444 27.47C106.424 27.47 105.514 27.7 104.714 28.16C103.914 28.62 103.274 29.27 102.794 30.11C102.314 30.93 102.074 31.91 102.074 33.05C102.074 34.17 102.314 35.16 102.794 36.02C103.274 36.86 103.914 37.51 104.714 37.97C105.514 38.43 106.424 38.66 107.444 38.66ZM126.637 47C125.177 47 123.757 46.79 122.377 46.37C121.017 45.97 119.907 45.39 119.047 44.63L120.427 42.41C121.167 43.05 122.077 43.55 123.157 43.91C124.237 44.29 125.367 44.48 126.547 44.48C128.427 44.48 129.807 44.04 130.687 43.16C131.567 42.28 132.007 40.94 132.007 39.14V35.78L132.307 32.63L132.157 29.45V25.1H134.887V38.84C134.887 41.64 134.187 43.7 132.787 45.02C131.387 46.34 129.337 47 126.637 47ZM126.277 40.34C124.737 40.34 123.357 40.02 122.137 39.38C120.937 38.72 119.977 37.81 119.257 36.65C118.557 35.49 118.207 34.15 118.207 32.63C118.207 31.09 118.557 29.75 119.257 28.61C119.977 27.45 120.937 26.55 122.137 25.91C123.357 25.27 124.737 24.95 126.277 24.95C127.637 24.95 128.877 25.23 129.997 25.79C131.117 26.33 132.007 27.17 132.667 28.31C133.347 29.45 133.687 30.89 133.687 32.63C133.687 34.35 133.347 35.78 132.667 36.92C132.007 38.06 131.117 38.92 129.997 39.5C128.877 40.06 127.637 40.34 126.277 40.34ZM126.607 37.82C127.667 37.82 128.607 37.6 129.427 37.16C130.247 36.72 130.887 36.11 131.347 35.33C131.827 34.55 132.067 33.65 132.067 32.63C132.067 31.61 131.827 30.71 131.347 29.93C130.887 29.15 130.247 28.55 129.427 28.13C128.607 27.69 127.667 27.47 126.607 27.47C125.547 27.47 124.597 27.69 123.757 28.13C122.937 28.55 122.287 29.15 121.807 29.93C121.347 30.71 121.117 31.61 121.117 32.63C121.117 33.65 121.347 34.55 121.807 35.33C122.287 36.11 122.937 36.72 123.757 37.16C124.597 37.6 125.547 37.82 126.607 37.82ZM147.2 41.18C145.6 41.18 144.18 40.83 142.94 40.13C141.7 39.43 140.72 38.47 140 37.25C139.28 36.01 138.92 34.61 138.92 33.05C138.92 31.47 139.28 30.07 140 28.85C140.72 27.63 141.7 26.68 142.94 26C144.18 25.3 145.6 24.95 147.2 24.95C148.78 24.95 150.19 25.3 151.43 26C152.69 26.68 153.67 27.63 154.37 28.85C155.09 30.05 155.45 31.45 155.45 33.05C155.45 34.63 155.09 36.03 154.37 37.25C153.67 38.47 152.69 39.43 151.43 40.13C150.19 40.83 148.78 41.18 147.2 41.18ZM147.2 38.66C148.22 38.66 149.13 38.43 149.93 37.97C150.75 37.51 151.39 36.86 151.85 36.02C152.31 35.16 152.54 34.17 152.54 33.05C152.54 31.91 152.31 30.93 151.85 30.11C151.39 29.27 150.75 28.62 149.93 28.16C149.13 27.7 148.22 27.47 147.2 27.47C146.18 27.47 145.27 27.7 144.47 28.16C143.67 28.62 143.03 29.27 142.55 30.11C142.07 30.93 141.83 31.91 141.83 33.05C141.83 34.17 142.07 35.16 142.55 36.02C143.03 36.86 143.67 37.51 144.47 37.97C145.27 38.43 146.18 38.66 147.2 38.66Z" fill="black"/>
</svg>
